<svg width="100" height="100" viewBox="0 0 100 100" fill="none" xmlns="http://www.w3.org/2000/svg">
<rect x="2" y="2" width="96" height="96" rx="48" fill="#E2DFDF"/>
<rect x="2" y="2" width="96" height="96" rx="48" stroke="#FF9D23" stroke-width="4"/>
<path d="M74.6317 19.6892C73.6147 17.8067 71.6433 16.6338 69.5043 16.6338H29.8291C27.6887 16.6338 25.7232 17.8081 24.7018 19.6906C23.6848 21.5731 23.778 23.8592 24.9495 25.6528L39.482 47.8873C34.0691 51.2895 30.4527 57.2969 30.4527 64.1508C30.4527 74.7449 39.0726 83.3662 49.6682 83.3662C60.2638 83.3662 68.8837 74.7464 68.8837 64.1508C68.8837 57.2983 65.2673 51.2909 59.8544 47.8873L74.3884 25.6514C75.5554 23.8607 75.6472 21.5717 74.6317 19.6892ZM58.7339 28.2915L49.6667 42.164L40.5996 28.2915H58.7339ZM61.3653 59.1866C62.0516 59.2857 62.6198 59.7665 62.834 60.428C63.0482 61.0866 62.8675 61.8049 62.378 62.2887L57.341 67.1945L58.5285 74.1257C58.645 74.809 58.3682 75.4953 57.8058 75.9047C57.4896 76.1335 57.1108 76.2501 56.7378 76.2501C56.4507 76.2501 56.1608 76.1816 55.8927 76.0417L49.6697 72.7692L43.4466 76.0417C42.8318 76.3608 42.0945 76.3112 41.5335 75.9004C40.9726 75.4953 40.6928 74.8047 40.8094 74.1213L41.9983 67.1902L36.9613 62.2843C36.466 61.8006 36.2897 61.0793 36.5038 60.4222C36.718 59.7665 37.2863 59.2857 37.9725 59.1823L44.9284 58.174L48.0421 51.8694C48.3467 51.2487 48.9805 50.8567 49.6711 50.8567C50.3617 50.8567 50.9956 51.2516 51.3001 51.8694L54.4138 58.174L61.3653 59.1866Z" fill="#FF9D23"/>
</svg>
