<svg width="49" height="67" viewBox="0 0 49 67" fill="none" xmlns="http://www.w3.org/2000/svg">
<path d="M39.5909 24.3636H9.13636H6.09091V48.7273H42.6364V24.3636H39.5909ZM9.13636 18.2727V15.2273C9.13636 6.81748 15.9538 0 24.3636 0C32.7734 0 39.5909 6.81748 39.5909 15.2273V18.2727H42.6364C46.0003 18.2727 48.7273 20.9997 48.7273 24.3636V60.9091C48.7273 64.273 46.0003 67 42.6364 67H6.09091C2.72699 67 0 64.273 0 60.9091V24.3636C0 20.9997 2.72699 18.2727 6.09091 18.2727H9.13636ZM42.6364 54.8182H6.09091V60.9091H42.6364V54.8182ZM15.2273 18.2727H33.5V15.2273C33.5 10.1814 29.4095 6.09091 24.3636 6.09091C19.3178 6.09091 15.2273 10.1814 15.2273 15.2273V18.2727Z" fill="#FF9D23"/>
</svg>
