<svg width="24" height="24" viewBox="0 0 24 24" fill="none" xmlns="http://www.w3.org/2000/svg">
<path d="M10.8 18H13.2V13.2H18V10.8H13.2V5.99999H10.8V10.8H5.99999V13.2H10.8V18ZM12 24C10.34 24 8.77999 23.685 7.31999 23.055C5.85999 22.425 4.59 21.57 3.51 20.49C2.43 19.41 1.575 18.14 0.944999 16.68C0.315 15.22 0 13.66 0 12C0 10.34 0.315 8.77999 0.944999 7.31999C1.575 5.85999 2.43 4.59 3.51 3.51C4.59 2.43 5.85999 1.575 7.31999 0.944999C8.77999 0.315 10.34 0 12 0C13.66 0 15.22 0.315 16.68 0.944999C18.14 1.575 19.41 2.43 20.49 3.51C21.57 4.59 22.425 5.85999 23.055 7.31999C23.685 8.77999 24 10.34 24 12C24 13.66 23.685 15.22 23.055 16.68C22.425 18.14 21.57 19.41 20.49 20.49C19.41 21.57 18.14 22.425 16.68 23.055C15.22 23.685 13.66 24 12 24ZM12 21.6C14.68 21.6 16.95 20.67 18.81 18.81C20.67 16.95 21.6 14.68 21.6 12C21.6 9.31999 20.67 7.04999 18.81 5.18999C16.95 3.33 14.68 2.4 12 2.4C9.31999 2.4 7.04999 3.33 5.18999 5.18999C3.33 7.04999 2.4 9.31999 2.4 12C2.4 14.68 3.33 16.95 5.18999 18.81C7.04999 20.67 9.31999 21.6 12 21.6Z" fill="white"/>
</svg>
