<svg width="100" height="100" viewBox="0 0 100 100" fill="none" xmlns="http://www.w3.org/2000/svg">
<rect x="1.66667" y="1.66667" width="96.6667" height="96.6667" rx="48.3333" fill="#D9D9D9"/>
<rect x="1.66667" y="1.66667" width="96.6667" height="96.6667" rx="48.3333" stroke="#FF9D23" stroke-width="3.33333"/>
<path fill-rule="evenodd" clip-rule="evenodd" d="M41.488 20.135C46.2114 16.1098 53.0761 15.9607 57.9579 19.6877L58.5121 20.135L59.7474 21.1875C60.6481 21.9552 61.7368 22.4625 62.8963 22.661L63.4813 22.7343L65.0991 22.8633C71.3014 23.3583 76.2706 28.1308 77.0675 34.2415L77.1368 34.9012L77.2658 36.5188C77.36 37.6986 77.7711 38.8271 78.4507 39.7873L78.8127 40.2528L79.8652 41.4879C83.8901 46.2112 84.0392 53.0759 80.3124 57.9577L79.8652 58.512L78.8127 59.7472C78.045 60.6479 77.5376 61.7367 77.339 62.8961L77.2658 63.4811L77.1368 65.0989C76.6417 71.3012 71.8693 76.2707 65.7588 77.0673L65.0991 77.1366L63.4813 77.2659C62.3016 77.3598 61.173 77.7709 60.2129 78.4505L59.7474 78.8124L58.5121 79.8649C53.7889 83.8902 46.9243 84.0393 42.0423 80.3122L41.488 79.8649L40.2529 78.8124C39.3521 78.0447 38.2634 77.5373 37.1039 77.339L36.5188 77.2659L34.9012 77.1366C28.6987 76.6418 23.7294 71.8691 22.9326 65.7586L22.8633 65.0989L22.7342 63.4811C22.6401 62.3014 22.229 61.1728 21.5495 60.2127L21.1876 59.7472L20.135 58.512C16.1098 53.7888 15.9607 46.9241 19.6877 42.0422L20.135 41.4879L21.1876 40.2528C21.9552 39.352 22.4625 38.2633 22.661 37.1039L22.7342 36.5188L22.8633 34.9012C23.3583 28.6987 28.1308 23.7293 34.2415 22.9326L34.9012 22.8633L36.5188 22.7343C37.6986 22.6401 38.8272 22.229 39.7874 21.5494L40.2529 21.1875L41.488 20.135ZM58.2021 53.281C55.4842 53.281 53.2808 55.4844 53.2808 58.2022C53.2808 60.9201 55.4842 63.1235 58.2021 63.1235C60.9199 63.1235 63.1234 60.9201 63.1234 58.2022C63.1234 55.4844 60.9199 53.281 58.2021 53.281ZM57.5226 37.8378L37.8376 57.5228C36.5564 58.804 36.5564 60.8814 37.8376 62.1625C39.1189 63.4437 41.1962 63.4437 42.4774 62.1625L62.1624 42.4776C63.4436 41.1963 63.4436 39.119 62.1624 37.8378C60.8812 36.5565 58.8038 36.5565 57.5226 37.8378ZM41.798 36.8768C39.08 36.8768 36.8767 39.0801 36.8767 41.7981C36.8767 44.5159 39.08 46.7193 41.798 46.7193C44.5157 46.7193 46.7192 44.5159 46.7192 41.7981C46.7192 39.0801 44.5157 36.8768 41.798 36.8768Z" fill="#FF9D23"/>
</svg>
